<svg xmlns="http://www.w3.org/2000/svg" xmlns:xlink="http://www.w3.org/1999/xlink" version="1.1" width="52.00592pt" height="27.000489pt" viewBox="0 0 52.00592 27.000489">
<path transform="matrix(1,0,0,-1,1.000397,29.415955)" d="M.682214 13.642777 .491201 12.66119 .682214 13.642777ZM12.270785 21.131985 11.589629 21.864123 11.507716 21.787915 11.444672 21.695488 12.270785 21.131985ZM30.402297 19.250458 29.59341 19.838427 30.402297 19.250458ZM42.446569 23.603793 42.722726 24.564904 42.446569 23.603793ZM50 16.003907 50.95984 15.723353 51.005517 15.879631 50.99926 16.042326 50 16.003907ZM25.416956 5.349401C25.478838 5.665804 25.693787 5.71706 25.50875 5.612755 25.38654 5.543865 25.162127 5.453888 24.826138 5.372442 24.162999 5.211693 23.221837 5.121683 22.173487 5.199463 20.056807 5.356508 17.747538 6.171482 16.377833 8.128819L14.739199 6.982136C16.584092 4.345747 19.582192 3.386225 22.025507 3.204947 23.257157 3.113565 24.40915 3.213438 25.297307 3.428734 25.736964 3.535309 26.15273 3.679895 26.49086 3.870499 26.766163 4.025686 27.261609 4.361368 27.379769 4.965513L25.416956 5.349401ZM15.58933 8.555002C13.660323 8.614473 12.373859 8.759096 11.318095 9.213745 10.303805 9.650534 9.403994 10.419813 8.381976 11.948195L6.719432 10.836462C7.878814 9.102659 9.049496 8.013119 10.527056 7.376831 11.963141 6.758402 13.589884 6.615694 15.5277 6.555952L15.58933 8.555002ZM7.731043 12.375933C6.498893 12.601842 5.558444 12.990868 4.522746 13.424648 3.488953 13.857631 2.361097 14.334831 .873227 14.624365L.491201 12.66119C1.755216 12.415218 2.712293 12.014584 3.750118 11.579914 4.786038 11.14604 5.903891 10.677595 7.370365 10.408724L7.731043 12.375933ZM.873227 14.624365C.672026 14.663518 .573129 14.692219 .537899 14.705155 .519108 14.712056 .556289 14.700973 .615874 14.661449 .661631 14.631099 .841077 14.506178 .939876 14.244617 1.062307 13.92049 .979249 13.61906 .865414 13.433722 .77468 13.285995 .670648 13.215238 .657216 13.205894 .623323 13.182316 .638631 13.198857 .772698 13.251231 1.020073 13.347869 1.406157 13.467758 1.955817 13.639135 2.487483 13.804901 3.134455 14.007737 3.846564 14.257967 6.657926 15.245858 10.688031 17.037005 13.096899 20.568482L11.444672 21.695488C9.417863 18.724122 5.922913 17.107464 3.183523 16.144864 2.507944 15.90747 1.890622 15.713765 1.360508 15.548482 .848389 15.38881 .375207 15.243143 .044951 15.114128-.109798 15.053675-.312897 14.967365-.4849 14.847713-.567386 14.790332-.720397 14.673232-.8388 14.480456-.980304 14.250071-1.069721 13.904886-.9311 13.537899-.816112 13.233479-.597929 13.066594-.489653 12.994773-.367549 12.91378-.244064 12.861721-.151533 12.827742 .035883 12.758918 .25971 12.706237 .491201 12.66119L.873227 14.624365ZM12.951941 20.399847C14.883106 22.196537 16.598185 23.37132 18.194943 23.896269 19.741318 24.404654 21.215949 24.318324 22.773236 23.494585L23.708384 25.262492C21.660372 26.345805 19.62175 26.470654 17.570315 25.796227 15.569263 25.138363 13.601978 23.736346 11.589629 21.864123L12.951941 20.399847ZM11.362601 21.550557C9.227259 16.917448 8.172041 14.716916 6.66599 11.858463L8.435418 10.926193C9.966326 13.831825 11.038976 16.070218 13.178969 20.713414L11.362601 21.550557ZM16.406434 7.025349C17.25725 8.386192 17.834786 9.195547 18.373951 10.326626 18.917054 11.46596 19.42853 12.935898 20.260134 15.717463L18.343937 16.290349C17.512736 13.510122 17.038506 12.17305 16.568577 11.18722 16.094712 10.193132 15.631889 9.55917 14.710598 8.085606L16.406434 7.025349ZM20.260134 15.717463C21.884276 21.149933 22.492083 20.885619 24.120833 23.903607L22.360787 24.85347C20.904866 22.155722 20.045407 21.981457 18.343937 16.290349L20.260134 15.717463ZM31.21118 18.66249C32.56029 20.518502 34.50372 21.747323 36.537145 22.394045 38.581075 23.044108 40.640794 23.082188 42.17041 22.64268L42.722726 24.564904C40.75392 25.130606 38.286886 25.04926 35.930974 24.29997 33.564558 23.547343 31.23506 22.096892 29.59341 19.838427L31.21118 18.66249ZM23.76443 23.526587C31.305584 28.161475 37.55415 28.144299 41.89333 26.113684 46.275339 24.06303 48.849065 19.910315 49.00074 15.965485L50.99926 16.042326C50.817705 20.764363 47.774164 25.569787 42.741044 27.925143 37.6651 30.30054 30.700688 30.137248 22.71719 25.23049L23.76443 23.526587ZM42.17041 22.64268C44.37063 22.010485 46.093629 20.3167 47.299734 18.671563 47.894346 17.860507 48.342348 17.089783 48.64107 16.522541 48.790067 16.239617 48.900949 16.009173 48.973516 15.852036 49.009775 15.773518 49.036397 15.713454 49.05336 15.674464 49.06184 15.654974 49.067899 15.640764 49.071535 15.632164 49.073354 15.627864 49.074563 15.624969 49.07517 15.623517 49.07547 15.622792 49.075624 15.622428 49.075624 15.62243 49.075624 15.622431 49.07558 15.622524 49.075506 15.622709 49.075468 15.622802 49.075384 15.62301 49.075365 15.623056 49.075269 15.623287 49.075166 15.623542 50 16.003907 50.92484 16.38427 50.924715 16.384572 50.92458 16.384896 50.924524 16.385037 50.924379 16.385384 50.924264 16.385664 50.92403 16.386223 50.92376 16.386878 50.92345 16.387625 50.922834 16.38912 50.922056 16.390992 50.921125 16.39323 50.919256 16.397709 50.916757 16.403666 50.91363 16.41106 50.90738 16.425848 50.898607 16.446389 50.887315 16.472348 50.86473 16.524254 50.832044 16.597882 50.789255 16.69054 50.70372 16.87576 50.57754 17.137614 50.41068 17.454464 50.07769 18.086773 49.5788 18.945508 48.912698 19.85408 47.597368 21.648201 45.54365 23.754359 42.722726 24.564904L42.17041 22.64268ZM27.379769 4.965513C27.492999 5.544455 27.532387 5.698774 27.547644 5.751528 27.554162 5.774063 27.596512 5.884638 27.647944 6.127808L25.691233 6.541668C25.658984 6.389194 25.678275 6.486616 25.626378 6.307165 25.58322 6.157934 25.528836 5.921436 25.416956 5.349401L27.379769 4.965513ZM27.66952 6.322962C27.72272 10.840738 28.385239 14.774757 31.21118 18.66249L29.59341 19.838427C26.424704 15.47914 25.725285 11.070372 25.669657 6.346514L27.66952 6.322962ZM49.04016 16.284459C47.809225 12.073105 46.038877 9.282719 44.077878 7.478149 42.12204 5.678333 39.92444 4.810678 37.748815 4.525553 33.33612 3.947252 29.034449 5.772257 27.280713 7.126272L26.058465 5.543203C28.168049 3.914446 32.991876 1.885035 38.0087 2.542511 40.547838 2.875275 43.141004 3.898056 45.43217 6.006454 47.718175 8.1101 49.651067 11.245707 50.95984 15.723353L49.04016 16.284459Z" fill="#1c3880" fill-opacity=".05"/>
</svg>
