<svg width="80" height="64" viewBox="0 0 80 64" fill="none" xmlns="http://www.w3.org/2000/svg">
<path d="M7.36202 5.26272C7.73702 4.50022 8.56202 4.06272 9.39952 4.17522L39.9995 8.00022L70.5995 4.17522C71.437 4.07522 72.262 4.51272 72.637 5.26272L77.8495 15.6877C78.9745 17.9252 77.7745 20.6377 75.3745 21.3252L54.9495 27.1627C53.212 27.6627 51.3495 26.9252 50.4245 25.3752L39.9995 8.00022L29.5745 25.3752C28.6495 26.9252 26.787 27.6627 25.0495 27.1627L4.63702 21.3252C2.22452 20.6377 1.03702 17.9252 2.16202 15.6877L7.36202 5.26272ZM40.137 16.0002L46.9995 27.4252C48.862 30.5252 52.5745 32.0002 56.062 31.0002L71.9995 26.4502V47.3252C71.9995 50.0752 70.1245 52.4752 67.4495 53.1502L41.937 59.5252C40.662 59.8502 39.3245 59.8502 38.062 59.5252L12.5495 53.1502C9.87452 52.4627 7.99952 50.0627 7.99952 47.3127V26.4377L23.9495 31.0002C27.4245 32.0002 31.1495 30.5252 33.012 27.4252L39.862 16.0002H40.137Z" fill="#1C3880"/>
</svg>
