<svg width="80" height="92" viewBox="0 0 80 92" fill="none" xmlns="http://www.w3.org/2000/svg">
<path d="M28.5714 14.2858C28.5714 9.55364 32.4107 5.71436 37.1429 5.71436H42.8571C47.5893 5.71436 51.4286 9.55364 51.4286 14.2858V77.1429C51.4286 81.8751 47.5893 85.7144 42.8571 85.7144H37.1429C32.4107 85.7144 28.5714 81.8751 28.5714 77.1429V14.2858ZM0 48.5715C0 43.8394 3.83929 40.0001 8.57143 40.0001H14.2857C19.0179 40.0001 22.8571 43.8394 22.8571 48.5715V77.1429C22.8571 81.8751 19.0179 85.7144 14.2857 85.7144H8.57143C3.83929 85.7144 0 81.8751 0 77.1429V48.5715ZM65.7143 17.1429H71.4286C76.1607 17.1429 80 20.9822 80 25.7144V77.1429C80 81.8751 76.1607 85.7144 71.4286 85.7144H65.7143C60.9821 85.7144 57.1429 81.8751 57.1429 77.1429V25.7144C57.1429 20.9822 60.9821 17.1429 65.7143 17.1429Z" fill="#1C3880"/>
</svg>
