<svg xmlns="http://www.w3.org/2000/svg" xmlns:xlink="http://www.w3.org/1999/xlink" version="1.1" width="52.00586pt" height="27.000458pt" viewBox="0 0 52.00586 27.000458">
<path transform="matrix(1,0,0,-1,1.000366,29.415925)" d="M.682214 13.642747 .491201 12.66116 .682214 13.642747ZM12.270785 21.131955 11.589629 21.864092 11.507716 21.787884 11.444672 21.695458 12.270785 21.131955ZM30.402297 19.250428 29.59341 19.838397 30.402297 19.250428ZM42.446569 23.603762 42.722726 24.564873 42.446569 23.603762ZM50 16.003876 50.95984 15.723323 51.005517 15.879601 50.99926 16.042296 50 16.003876ZM25.416956 5.349371C25.478838 5.665773 25.693787 5.71703 25.50875 5.612724 25.38654 5.543835 25.162127 5.453857 24.826138 5.372412 24.162999 5.211662 23.221837 5.121653 22.173487 5.199432 20.056807 5.356478 17.747538 6.171452 16.377833 8.128788L14.739199 6.982105C16.584092 4.345716 19.582192 3.386194 22.025507 3.204916 23.257157 3.113535 24.40915 3.213408 25.297307 3.428703 25.736964 3.535278 26.15273 3.679865 26.49086 3.870468 26.766163 4.025656 27.261609 4.361338 27.379769 4.965483L25.416956 5.349371ZM15.58933 8.554972C13.660323 8.614443 12.373859 8.759066 11.318095 9.213715 10.303805 9.650503 9.403994 10.419783 8.381976 11.948164L6.719432 10.836432C7.878814 9.102629 9.049496 8.013088 10.527056 7.376801 11.963141 6.758371 13.589884 6.615664 15.5277 6.555922L15.58933 8.554972ZM7.731043 12.375902C6.498893 12.601811 5.558444 12.990837 4.522746 13.424618 3.488953 13.8576 2.361097 14.334801 .873227 14.624334L.491201 12.66116C1.755216 12.415188 2.712293 12.014553 3.750118 11.579884 4.786038 11.146009 5.903891 10.677565 7.370365 10.408693L7.731043 12.375902ZM.873227 14.624334C.672026 14.663487 .573129 14.692188 .537899 14.705125 .519108 14.712026 .556289 14.700942 .615874 14.661419 .661631 14.631068 .841077 14.506147 .939876 14.244587 1.062307 13.92046 .979249 13.619029 .865414 13.433691 .77468 13.285965 .670648 13.215207 .657216 13.205863 .623323 13.182285 .638631 13.198827 .772698 13.251201 1.020073 13.347838 1.406157 13.467728 1.955817 13.639105 2.487483 13.804871 3.134455 14.007707 3.846564 14.257936 6.657926 15.245828 10.688031 17.036974 13.096899 20.56845L11.444672 21.695458C9.417863 18.72409 5.922913 17.107434 3.183523 16.144833 2.507944 15.907439 1.890622 15.713735 1.360508 15.548451 .848389 15.38878 .375207 15.243113 .044951 15.114098-.109798 15.053644-.312897 14.967335-.4849 14.847683-.567386 14.790301-.720397 14.673202-.8388 14.480426-.980304 14.25004-1.069721 13.904856-.9311 13.537868-.816112 13.233449-.597929 13.066564-.489653 12.994742-.367549 12.91375-.244064 12.861691-.151533 12.827711 .035883 12.758887 .25971 12.706206 .491201 12.66116L.873227 14.624334ZM12.951941 20.399817C14.883106 22.196507 16.598185 23.37129 18.194943 23.896239 19.741318 24.404623 21.215949 24.318293 22.773236 23.494555L23.708384 25.26246C21.660372 26.345774 19.62175 26.470623 17.570315 25.796196 15.569263 25.138333 13.601978 23.736315 11.589629 21.864092L12.951941 20.399817ZM11.362601 21.550526C9.227259 16.917418 8.172041 14.716886 6.66599 11.858433L8.435418 10.926163C9.966326 13.831795 11.038976 16.070187 13.178969 20.713383L11.362601 21.550526ZM16.406434 7.025318C17.25725 8.386162 17.834786 9.195517 18.373951 10.326595 18.917054 11.465929 19.42853 12.935867 20.260134 15.717433L18.343937 16.290318C17.512736 13.510092 17.038506 12.173019 16.568577 11.187189 16.094712 10.193102 15.631889 9.559139 14.710598 8.085575L16.406434 7.025318ZM20.260134 15.717433C21.884276 21.149903 22.492083 20.885588 24.120833 23.903576L22.360787 24.85344C20.904866 22.155692 20.045407 21.981427 18.343937 16.290318L20.260134 15.717433ZM31.21118 18.66246C32.56029 20.51847 34.50372 21.747292 36.537145 22.394015 38.581075 23.044077 40.640794 23.082158 42.17041 22.642649L42.722726 24.564873C40.75392 25.130576 38.286886 25.049229 35.930974 24.29994 33.564558 23.547312 31.23506 22.09686 29.59341 19.838397L31.21118 18.66246ZM23.76443 23.526556C31.305584 28.161444 37.55415 28.144268 41.89333 26.113654 46.275339 24.063 48.849065 19.910284 49.00074 15.965454L50.99926 16.042296C50.817705 20.764332 47.774164 25.569756 42.741044 27.925112 37.6651 30.30051 30.700688 30.137217 22.71719 25.23046L23.76443 23.526556ZM42.17041 22.642649C44.37063 22.010455 46.093629 20.31667 47.299734 18.671532 47.894346 17.860476 48.342348 17.089753 48.64107 16.52251 48.790067 16.239586 48.900949 16.009142 48.973516 15.852006 49.009775 15.773487 49.036397 15.713424 49.05336 15.674434 49.06184 15.654943 49.067899 15.640734 49.071535 15.632133 49.073354 15.627833 49.074563 15.624938 49.07517 15.623487 49.07547 15.622762 49.075624 15.622397 49.075624 15.622399 49.075624 15.6224 49.07558 15.622494 49.075506 15.622679 49.075468 15.622771 49.075384 15.622979 49.075365 15.623026 49.075269 15.623257 49.075166 15.623511 50 16.003876 50.92484 16.38424 50.924715 16.38454 50.92458 16.384865 50.924524 16.385006 50.924379 16.385354 50.924264 16.385634 50.92403 16.386193 50.92376 16.386847 50.92345 16.387595 50.922834 16.38909 50.922056 16.39096 50.921125 16.3932 50.919256 16.397679 50.916757 16.403635 50.91363 16.41103 50.90738 16.425818 50.898607 16.446358 50.887315 16.472317 50.86473 16.524224 50.832044 16.59785 50.789255 16.69051 50.70372 16.875729 50.57754 17.137583 50.41068 17.454434 50.07769 18.086743 49.5788 18.945477 48.912698 19.85405 47.597368 21.64817 45.54365 23.754328 42.722726 24.564873L42.17041 22.642649ZM27.379769 4.965483C27.492999 5.544424 27.532387 5.698744 27.547644 5.751497 27.554162 5.774033 27.596512 5.884607 27.647944 6.127777L25.691233 6.541637C25.658984 6.389164 25.678275 6.486586 25.626378 6.307135 25.58322 6.157904 25.528836 5.921406 25.416956 5.349371L27.379769 4.965483ZM27.66952 6.322931C27.72272 10.840708 28.385239 14.774727 31.21118 18.66246L29.59341 19.838397C26.424704 15.47911 25.725285 11.070341 25.669657 6.346483L27.66952 6.322931ZM49.04016 16.284428C47.809225 12.073074 46.038877 9.282688 44.077878 7.478119 42.12204 5.678303 39.92444 4.810648 37.748815 4.525522 33.33612 3.947222 29.034449 5.772226 27.280713 7.126242L26.058465 5.543173C28.168049 3.914415 32.991876 1.885004 38.0087 2.54248 40.547838 2.875244 43.141004 3.898026 45.43217 6.006424 47.718175 8.110069 49.651067 11.245676 50.95984 15.723323L49.04016 16.284428Z" fill="#1c3880"/>
</svg>
