<svg width="80" height="80" viewBox="0 0 80 80" fill="none" xmlns="http://www.w3.org/2000/svg">
<path d="M0 65C0 67.7656 2.23437 70 5 70H13.5469C15.4687 74.4219 19.875 77.5 25 77.5C30.125 77.5 34.5313 74.4219 36.4531 70H75C77.7656 70 80 67.7656 80 65C80 62.2344 77.7656 60 75 60H36.4531C34.5313 55.5781 30.125 52.5 25 52.5C19.875 52.5 15.4687 55.5781 13.5469 60H5C2.23437 60 0 62.2344 0 65ZM20 65C20 63.6739 20.5268 62.4021 21.4645 61.4645C22.4021 60.5268 23.6739 60 25 60C26.3261 60 27.5979 60.5268 28.5355 61.4645C29.4732 62.4021 30 63.6739 30 65C30 66.3261 29.4732 67.5979 28.5355 68.5355C27.5979 69.4732 26.3261 70 25 70C23.6739 70 22.4021 69.4732 21.4645 68.5355C20.5268 67.5979 20 66.3261 20 65ZM50 40C50 38.6739 50.5268 37.4021 51.4645 36.4645C52.4021 35.5268 53.6739 35 55 35C56.3261 35 57.5979 35.5268 58.5355 36.4645C59.4732 37.4021 60 38.6739 60 40C60 41.3261 59.4732 42.5979 58.5355 43.5355C57.5979 44.4732 56.3261 45 55 45C53.6739 45 52.4021 44.4732 51.4645 43.5355C50.5268 42.5979 50 41.3261 50 40ZM55 27.5C49.875 27.5 45.4688 30.5781 43.5469 35H5C2.23437 35 0 37.2344 0 40C0 42.7656 2.23437 45 5 45H43.5469C45.4688 49.4219 49.875 52.5 55 52.5C60.125 52.5 64.5312 49.4219 66.4531 45H75C77.7656 45 80 42.7656 80 40C80 37.2344 77.7656 35 75 35H66.4531C64.5312 30.5781 60.125 27.5 55 27.5ZM30 20C28.6739 20 27.4021 19.4732 26.4645 18.5355C25.5268 17.5979 25 16.3261 25 15C25 13.6739 25.5268 12.4021 26.4645 11.4645C27.4021 10.5268 28.6739 10 30 10C31.3261 10 32.5979 10.5268 33.5355 11.4645C34.4732 12.4021 35 13.6739 35 15C35 16.3261 34.4732 17.5979 33.5355 18.5355C32.5979 19.4732 31.3261 20 30 20ZM41.4531 10C39.5312 5.57813 35.125 2.5 30 2.5C24.875 2.5 20.4687 5.57813 18.5469 10H5C2.23437 10 0 12.2344 0 15C0 17.7656 2.23437 20 5 20H18.5469C20.4687 24.4219 24.875 27.5 30 27.5C35.125 27.5 39.5312 24.4219 41.4531 20H75C77.7656 20 80 17.7656 80 15C80 12.2344 77.7656 10 75 10H41.4531Z" fill="#1C3880"/>
</svg>
