<svg width="80" height="80" viewBox="0 0 80 80" fill="none" xmlns="http://www.w3.org/2000/svg">
<g clip-path="url(#clip0_114_368)">
<path d="M34.9995 15C34.9995 13.6739 35.5262 12.4021 36.4639 11.4645C37.4016 10.5268 38.6734 10 39.9995 10C41.3255 10 42.5973 10.5268 43.535 11.4645C44.4727 12.4021 44.9995 13.6739 44.9995 15C44.9995 16.3261 44.4727 17.5979 43.535 18.5355C42.5973 19.4732 41.3255 20 39.9995 20C38.6734 20 37.4016 19.4732 36.4639 18.5355C35.5262 17.5979 34.9995 16.3261 34.9995 15ZM54.1401 20C54.687 18.4375 54.9995 16.75 54.9995 15C54.9995 6.71875 48.2807 0 39.9995 0C31.7182 0 24.9995 6.71875 24.9995 15C24.9995 16.75 25.2963 18.4375 25.8588 20H18.7495C15.312 20 12.312 22.3437 11.4682 25.6875L0.218212 70.6875C-0.344288 72.9219 0.155712 75.2969 1.57759 77.125C2.99946 78.9531 5.18696 80 7.49946 80H72.4995C74.812 80 76.9838 78.9375 78.4057 77.1094C79.8276 75.2813 80.3276 72.9219 79.7651 70.6719L68.5151 25.6719C67.687 22.3438 64.687 20 61.2495 20H54.1401Z" fill="#1C3880"/>
</g>
<defs>
<clipPath id="clip0_114_368">
<rect width="80" height="80" fill="white"/>
</clipPath>
</defs>
</svg>
